<svg width="28" height="28" viewBox="0 0 28 28" fill="none" xmlns="http://www.w3.org/2000/svg" class=""><path d="M14 18.4707c-.2988 0-.5625-.1143-.791-.3516l-6.6973-6.8466c-.1933-.1934-.2988-.4395-.2988-.7207 0-.5713.4482-1.0196 1.0195-1.0196.2813 0 .5362.1143.7383.3076L14 16.0186l6.0293-6.1788a1.0442 1.0442 0 0 1 .7383-.3076c.5625 0 1.0107.4483 1.0107 1.0196 0 .29-.0967.5273-.29.7207l-6.6973 6.8466c-.2197.2373-.4922.3516-.791.3516Z" fill="#171717" stroke="#171717" stroke-width="0"></path></svg>